/vscmnt/brussel_pixiu_data/_data_brussel/112/vsc11236/PredSimResults/SUBJ11opt3D/trackIG/worker_03.mot
version=1
nRows=5
nColumns=50
inDegrees=yes
endheader
                time	         pelvis_tilt	         pelvis_list	     pelvis_rotation	           pelvis_tx	           pelvis_ty	           pelvis_tz	       hip_flexion_r	     hip_adduction_r	      hip_rotation_r	        knee_angle_r	       ankle_angle_r	         mtp_angle_r	       hip_flexion_l	     hip_adduction_l	      hip_rotation_l	        knee_angle_l	       ankle_angle_l	         mtp_angle_l	    lumbar_extension	      lumbar_bending	     lumbar_rotation	 ercspn_r/activation	 intobl_r/activation	 extobl_r/activation	    abd_r/activation	    add_r/activation	hamstrings_r/activation	bifemsh_r/activation	glut_max_r/activation	iliopsoas_r/activation	rect_fem_r/activation	  vasti_r/activation	gastroc_r/activation	 soleus_r/activation	tib_ant_r/activation	 ercspn_l/activation	 intobl_l/activation	 extobl_l/activation	    abd_l/activation	    add_l/activation	hamstrings_l/activation	bifemsh_l/activation	glut_max_l/activation	iliopsoas_l/activation	rect_fem_l/activation	  vasti_l/activation	gastroc_l/activation	 soleus_l/activation	tib_ant_l/activation	
          0.00000000	         -2.23168856	          0.09807443	          4.17091527	          0.00000000	          0.95079315	         -0.00957529	         28.78021738	         -2.73111025	         -2.61208257	        -10.20439458	          0.30876428	          0.22849824	        -11.02252878	         -1.67794436	         -5.34221149	        -12.47730734	         13.86186706	         24.27071839	        -15.01465063	         -4.07526507	         -3.04788701	          0.01269373	          0.22158531	          0.07507854	          0.00999999	          0.15579958	          0.00999999	          0.09417650	          0.05659178	          0.08556695	          0.04863747	          0.01842700	          0.00999999	          0.00999999	          0.33509101	          0.00999999	          0.00999999	          0.00999999	          0.05069008	          0.01269373	          0.01266194	          0.12823325	          0.01716424	          0.04400822	          0.00999999	          0.00999999	          0.12892733	          0.28765312	          0.01276380	
          0.01616244	         -2.41718904	          0.11741771	          4.02221749	          0.01653616	          0.94854320	         -0.00727563	         28.28824499	         -2.50419209	         -2.64740883	        -10.66814502	         -0.19339369	          0.20122689	        -11.53369491	         -1.83867499	         -5.90937261	        -13.08688616	         13.44998761	         25.75342045	        -14.60208332	         -3.60339829	         -3.32375079	          0.00999999	          0.21962207	          0.05914612	          0.01650656	          0.12273733	          0.03354744	          0.07419129	          0.06049206	          0.06740878	          0.03831610	          0.01451661	          0.01269373	          0.01269373	          0.37287567	          0.00999999	          0.00999999	          0.01269374	          0.03993313	          0.00999999	          0.01498316	          0.10102086	          0.02239837	          0.03466923	          0.00999999	          0.00999999	          0.10480611	          0.27593229	          0.01005519	
          0.03232488	         -2.58348327	          0.10688752	          3.84964438	          0.03348411	          0.94676185	         -0.00487669	         27.79924062	         -2.28563885	         -2.76029513	        -11.18379689	         -0.92892186	          0.19509398	        -11.94781092	         -2.04763664	         -6.49507183	        -13.91807518	         12.84612107	         27.32624076	        -14.15453186	         -3.08070800	         -3.59714305	          0.01471104	          0.17301604	          0.04659471	          0.05276588	          0.15341794	          0.04296724	          0.05844715	          0.05517008	          0.05310395	          0.03018504	          0.04027688	          0.00999999	          0.00999999	          0.43133324	          0.00999999	          0.00999999	          0.01000000	          0.03145892	          0.00999999	          0.01180358	          0.07958321	          0.01764521	          0.02731207	          0.01185953	          0.00999999	          0.08256519	          0.25891828	          0.00999999	
          0.04848732	         -2.73046339	          0.08917220	          3.64821225	          0.05059142	          0.94569410	         -0.00237991	         27.39829251	         -2.08207381	         -2.97187265	        -11.86986961	         -1.68918427	          0.15555494	        -12.16867780	         -2.29010276	         -7.08628167	        -15.09800636	         11.98624268	         29.02135413	        -13.70371603	         -2.53796842	         -3.86314278	          0.01611308	          0.13630029	          0.03670684	          0.07581767	          0.16408934	          0.04829220	          0.04604407	          0.04346243	          0.04183476	          0.02377947	          0.09360808	          0.00999999	          0.00999999	          0.47173427	          0.01516232	          0.00999999	          0.00999999	          0.02478302	          0.00999999	          0.01818297	          0.06269485	          0.01504506	          0.02151617	          0.00999999	          0.01907687	          0.06504402	          0.23505903	          0.00999999	
          0.06464977	         -2.85805738	          0.06646215	          3.42530216	          0.06774475	          0.94550441	          0.00018640	         27.03194486	         -1.87941886	         -3.20475286	        -12.70575653	         -2.13091632	          0.11200725	        -12.16049135	         -2.57084025	         -7.68062058	        -16.65743986	         10.81957086	         30.82495203	        -13.25920288	         -1.98196967	         -4.11938618	          0.01269373	          0.10737598	          0.02891728	          0.09445663	          0.16476611	          0.04926388	          0.03627305	          0.05677990	          0.03295700	          0.01873322	          0.12500862	          0.00999999	          0.00999999	          0.47174848	          0.04614066	          0.00999999	          0.00999999	          0.01952381	          0.01000000	          0.04245860	          0.04939036	          0.01269374	          0.01695022	          0.00999999	          0.02925970	          0.05124102	          0.20547448	          0.00999999	
